<?xml version="1.0" encoding="UTF-8"?>
<svg version="1.1" xmlns="http://www.w3.org/2000/svg" width="689" height="653">
<path d="M0 0 C227.37 0 454.74 0 689 0 C689 215.49 689 430.98 689 653 C461.63 653 234.26 653 0 653 C0 437.51 0 222.02 0 0 Z " fill="#F6EDF7" transform="translate(0,0)"/>
<path d="M0 0 C7.07765855 5.78439791 13.42899666 12.29280458 19.87632751 18.756073 C21.18971733 20.06902644 22.50332699 21.38175999 23.81713682 22.69429314 C27.41786874 26.29279303 31.01548184 29.89439682 34.61258709 33.49652147 C38.49548746 37.3837447 42.38128188 41.26807303 46.26672363 45.15275574 C52.99519109 51.88069912 59.72182678 58.61046942 66.44721794 65.34148788 C76.17098018 75.07338093 85.89750613 84.80250792 95.62470645 94.53096439 C111.40679065 110.31523661 127.18664535 126.10173606 142.96508789 141.88964844 C158.29138583 157.22513421 173.61873637 172.5595667 188.94750977 187.89257812 C189.65655233 188.60181798 189.65655233 188.60181798 190.37991898 189.3253859 C195.12701995 194.07380542 199.87414229 198.82220357 204.62128029 203.57058608 C244.41741836 243.37716104 284.20995221 283.18733735 324 323 C318.37835495 329.82007802 312.17827732 336.05229705 305.98402405 342.34483337 C304.75097181 343.60053918 303.51807715 344.85639973 302.28532594 346.11240107 C298.9064063 349.55357972 295.52434371 352.99165386 292.14151084 356.42898524 C289.97663438 358.6291556 287.81260042 360.8301514 285.64881134 363.03139114 C258.26448791 390.8879861 230.79031315 418.65561583 203.27949286 446.38724976 C198.78401 450.91884082 194.28914908 455.4510483 189.79467773 459.98364258 C188.90004609 460.88584034 188.00541445 461.78803811 187.08367275 462.7175752 C172.60399652 477.32299884 158.18154682 491.98367768 143.779885 506.66598719 C128.97432366 521.75762728 114.11001609 536.78949333 99.18970674 551.76770693 C89.99920013 560.99752115 80.85665539 570.26996676 71.77137094 579.60339303 C65.53141142 586.00472128 59.23488606 592.34668102 52.89201678 598.64603912 C49.23996932 602.27635304 45.61700696 605.92637679 42.05937004 609.64945793 C17.16125792 635.63749133 17.16125792 635.63749133 -0.46536255 636.49855042 C-20.16805507 635.58391772 -32.86167937 620.32562236 -45.6372751 606.96075916 C-49.33798351 603.12484914 -53.12930411 599.38025105 -56.90977478 595.62322998 C-63.43083649 589.11834234 -69.89319613 582.55960461 -76.317976 575.95965576 C-85.60651206 566.41804015 -94.98057358 556.96427087 -104.37698729 547.52901673 C-119.62285529 532.21547607 -134.79836083 516.83415341 -149.93041992 501.40820312 C-164.62069503 486.4329185 -179.34352197 471.49088921 -194.11108398 456.59179688 C-195.4788593 455.21180492 -195.4788593 455.21180492 -196.87426644 453.80393434 C-201.44943373 449.1883078 -206.02524601 444.57332131 -210.60137928 439.9586525 C-248.50140498 401.7378048 -286.28768108 363.40600751 -324 325 C-318.20510286 317.90809774 -311.68169825 311.54552639 -305.20596313 305.08570862 C-303.88888489 303.76819401 -302.57202654 302.45045954 -301.25536859 301.13252491 C-297.64546716 297.52039139 -294.03246172 293.91137677 -290.41893554 290.30286992 C-286.5194423 286.40769946 -282.62284387 282.50963502 -278.72589111 278.61192322 C-271.97666681 271.86217484 -265.22561555 265.11425824 -258.47331619 258.36758614 C-248.71065409 248.61305478 -238.95075798 238.85575976 -229.19153242 229.09779035 C-213.35734587 213.26579185 -197.52093214 197.43602289 -181.68310547 181.60766602 C-166.2991171 166.23286545 -150.916182 150.85701232 -135.53466797 135.47973633 C-135.06034735 135.00554723 -134.58602672 134.53135813 -134.09733275 134.04279967 C-129.33390983 129.2806953 -124.57050828 124.51856956 -119.80712238 119.75642816 C-79.87464458 79.8343873 -39.93856544 39.91595064 0 0 Z " fill="#B25A95" transform="translate(344,20)"/>
<path d="M0 0 C97.68 0 195.36 0 296 0 C292.07757035 4.57616792 288.19492702 8.95497685 283.95248413 13.20141602 C283.08535638 14.07511715 283.08535638 14.07511715 282.20071089 14.96646881 C280.28247004 16.89795759 278.36075995 18.82595434 276.43896484 20.75390625 C275.05524999 22.14553218 273.67171488 23.53733684 272.28834534 24.92930603 C267.766285 29.47743649 263.23890094 34.02024756 258.7109375 38.5625 C257.15022696 40.12857349 255.58952372 41.69465425 254.02882767 43.26074219 C247.54211616 49.76904654 241.05397969 56.27592474 234.56210899 62.77908325 C225.26068274 72.09679243 215.96788054 81.42291855 206.68674886 90.76084423 C200.15520882 97.33099099 193.61419986 103.89161316 187.06597865 110.44513416 C183.15513688 114.35963761 179.24863091 118.27825516 175.35215378 122.20706177 C171.6940008 125.89513741 168.02432857 129.57133598 164.34527397 133.23855782 C162.99445776 134.58915207 161.64794694 135.94406763 160.30600548 137.30348015 C158.47978941 139.15217985 156.63899672 140.98498173 154.79354858 142.81445312 C154.26066896 143.36121484 153.72778933 143.90797655 153.17876184 144.4713068 C151.6774807 145.94055176 151.6774807 145.94055176 149 148 C145.14850064 147.88310146 143.32979875 145.69157847 140.69921875 143.02734375 C139.88646484 142.20943359 139.07371094 141.39152344 138.23632812 140.54882812 C137.39521484 139.68708984 136.55410156 138.82535156 135.6875 137.9375 C134.85798828 137.10283203 134.02847656 136.26816406 133.17382812 135.40820312 C129.68911117 131.87948027 126.28085433 128.33724114 123.0642395 124.56225586 C118.13034948 118.91571604 112.80129971 113.66134874 107.49682617 108.36743164 C106.34613755 107.21538561 105.19566124 106.06312748 104.04537964 104.91067505 C100.9427129 101.8034774 97.83692541 98.69941725 94.73040175 95.59607625 C91.47471526 92.34293223 88.22148135 89.08733701 84.96784973 85.83213806 C79.51169398 80.37416767 74.05344313 74.91829917 68.59399414 69.46362305 C62.27825414 63.15334069 55.96614671 56.83944188 49.65588206 50.52368456 C44.23253979 45.09581054 38.80725913 39.66987976 33.3803404 34.24558157 C30.14099809 31.00779959 26.90233848 27.7693425 23.66542625 24.52913094 C20.62824628 21.48907082 17.58864682 18.45145111 14.54713058 15.41572952 C13.42958919 14.29951425 12.31290506 13.18243997 11.19712639 12.06446266 C9.67876986 10.5433893 8.15739239 9.02540471 6.63517761 7.50819397 C5.7833147 6.65670808 4.93145178 5.80522219 4.05377483 4.92793369 C2.14820243 2.95489206 2.14820243 2.95489206 0 2 C0 1.34 0 0.68 0 0 Z " fill="#F6EDF7" transform="translate(196,344)"/>
</svg>
